<svg width="270" height="312" viewBox="0 0 270 312" fill="none" xmlns="http://www.w3.org/2000/svg">
<path d="M106.978 21.6416C109.533 21.5334 111.235 24.1244 111.307 26.4509C111.734 29.0839 111.247 31.8072 109.81 34.0675C105.715 40.9327 98.7033 46.4513 97.4946 54.7593C97.6871 58.7269 99.6595 62.5202 102.69 65.0812C104.903 66.8726 105.468 71.1468 102.245 72.1748C100.351 71.6698 99.2265 69.9445 97.8615 68.6941C94.073 65.2916 91.8842 60.338 91.4272 55.3124C91.8782 48.0504 96.5746 42.0749 101.145 36.7787C103.508 33.6587 106.629 30.8213 107.441 26.8296C108.024 25.0923 107.098 23.3729 106.978 21.6416Z" fill="white"/>
<path d="M140.839 22.6215C144.597 23.902 144.706 28.4888 144.224 31.7651C142.667 36.9951 138.981 41.2393 135.15 44.9785C132.829 47.4493 132.498 51.0021 133.316 54.1702C133.455 58.8772 137.014 62.3339 138.386 66.6321C138.981 68.5378 139.714 70.6659 138.8 72.5956C137.772 74.3209 134.844 74.0023 134.2 72.0967C133.19 69.8604 132.661 67.4137 131.326 65.3156C128.187 59.8992 126.473 53.4308 127.814 47.2208C128.8 43.6439 131.278 40.7824 133.948 38.3237C136.786 35.7928 138.903 32.5165 140.238 28.9697C141.061 26.9558 140.586 24.7316 140.839 22.6215Z" fill="white"/>
<path d="M108.782 80.0079C116.034 80.1581 123.28 78.9258 130.526 79.7193C133.659 80.1341 136.846 79.7013 139.967 80.2543C151.651 81.3544 163.311 82.5267 174.995 83.6208C181.598 84.4865 188.483 86.2599 193.48 90.9249C194.899 92.4398 195.867 94.3394 196.523 96.2932C196.727 97.784 196.541 99.305 196.853 100.778C197.497 103.555 197.094 106.417 197.365 109.23C197.792 113.889 197.521 118.572 197.491 123.243C201.766 122.948 206.012 123.574 210.125 124.74C219.446 126.778 228.52 130.739 235.724 137.082C240.811 140.947 244.227 146.514 247.137 152.098C252.098 162.775 253.89 174.69 253.746 186.382C253.307 191.991 252.76 197.63 251.232 203.071C248.502 213.374 243.18 223.149 235.279 230.399C225.694 239.386 212.879 244.238 199.986 245.915C200.317 250.538 199.571 255.473 196.884 259.351C194.929 262.375 193.564 265.879 190.762 268.272C184.063 273.953 175.229 276.087 166.745 277.361C160.936 278.425 155.031 278.299 149.155 278.696C142.727 278.918 136.317 278.215 129.889 278.335C125.529 278.353 121.163 278.389 116.822 277.981C111.957 277.415 107.038 278.083 102.185 277.385C98.998 276.88 95.7448 277.421 92.5697 276.778C81.5352 275.84 70.0076 273.911 60.6448 267.599C52.4606 262.302 48.8105 252.269 48.612 242.873C47.722 236.657 48.8826 230.429 48.7864 224.201C49.508 220.011 49.2013 215.755 49.5681 211.541C49.9169 205.746 49.1893 199.969 49.3096 194.173C49.3998 186.364 49.063 178.555 49.1653 170.74C49.514 160.731 48.9608 150.686 49.8628 140.701C50.0252 129.122 49.7846 117.544 49.9831 105.972C50.5183 102.738 50.5543 99.4673 50.5303 96.197C51.5105 90.9729 56.2009 87.4983 60.8071 85.4844C67.0851 82.9535 73.9102 82.0518 80.6151 81.5949C84.7884 80.7713 89.0579 81.4326 93.2612 80.9276C98.4267 80.3385 103.652 80.8976 108.782 80.0079ZM87.2178 85.2439C83.6218 85.2499 80.0739 85.815 76.502 86.1757C74.3793 86.6927 71.7454 86.3561 70.206 88.2016C65.9726 92.6442 61.2281 96.6358 57.602 101.613C58.1432 102.473 59.5383 103.615 60.5065 103.267C63.5131 99.0645 67.6142 95.8423 71.4929 92.4879C72.9722 91.3637 74.3673 90.0832 76.1111 89.3618C75.4376 91.8446 72.6294 92.6802 71.0539 94.5017C67.3376 97.0566 64.806 100.808 61.7091 103.994C66.2252 105.858 71.2704 106.23 76.1111 106.405C76.5261 105.575 77.0312 104.775 77.6987 104.126C80.3145 101.529 82.9483 98.9503 85.6664 96.4555C86.9833 95.3133 87.8552 93.4978 89.6953 93.1131C89.5811 93.9246 89.2984 94.7061 88.7211 95.3073C86.2978 98.277 83.1588 100.543 80.6632 103.447C79.7252 104.487 78.6848 105.431 77.6626 106.393C80.2122 106.759 82.7739 107.018 85.3537 107.042C88.7873 102.629 93.4958 99.4853 97.3082 95.4275C97.7232 94.6821 98.9018 95.8724 98.1681 96.2932C94.6924 99.9302 90.9762 103.327 87.4944 106.958C89.8998 107.042 92.3051 107.006 94.7165 106.988C95.1615 106.014 95.7087 105.052 96.5505 104.361C99.3167 101.95 102.089 99.5214 105.108 97.4233C105.27 97.6818 105.607 98.1988 105.769 98.4573C102.48 101.06 99.3949 103.898 96.5566 106.994C98.7033 107.12 100.856 107.18 103.003 107.36C103.52 106.435 103.959 105.419 104.813 104.751C107.573 102.491 110.622 100.615 113.274 98.2289C113.875 98.1027 114.188 98.3551 114.212 98.9803C111.379 102.172 106.9 103.681 104.789 107.553C107.651 107.463 110.622 107.938 113.412 107.493C116.106 104.938 118.962 102.551 121.614 99.9422C122.113 99.4252 122.733 99.1126 123.454 98.9984C123.37 99.2869 123.202 99.864 123.118 100.147C120.845 102.972 117.639 105.01 115.751 108.13C118.193 108.19 120.664 108.364 123.094 108.1C126.341 106.314 128.488 103.225 131.127 100.736C131.206 101.066 131.368 101.722 131.446 102.052C129.732 104.337 127.874 106.537 125.553 108.232C126.984 108.352 128.427 108.629 129.865 108.515C133.521 106.11 136.762 103.116 140.334 100.585C140.791 100.279 141.524 101.559 140.863 101.716C138.073 103.88 135.361 106.146 132.619 108.376C134.423 108.869 136.299 108.659 138.139 108.683C141.031 105.497 144.531 102.96 148.013 100.459C148.716 99.828 149.606 99.5875 150.551 99.7138C150.442 99.9662 150.232 100.483 150.13 100.742C146.852 103.212 143.28 105.383 140.683 108.635C142.198 108.587 143.725 108.647 145.235 108.479C148.452 106.585 150.779 103.621 153.575 101.223C156.191 99.3711 158.194 96.8342 160.659 94.8143C161.657 94.64 162 95.0127 161.681 95.9385C160.052 97.772 158.194 99.3831 156.251 100.88C153.659 103.255 151.158 105.731 148.759 108.298C153.918 108.028 159.132 108.575 164.255 107.745C170.864 107.499 177.496 106.747 183.925 105.13C187.196 104.355 190.353 102.016 191.051 98.5716C190.9 97.3031 190.365 96.1249 189.661 95.0668C187.563 97.219 185.157 99.0645 183.233 101.391C182.163 102.443 181.297 103.982 179.673 104.162C180.004 103.249 180.19 102.221 180.84 101.469C183.191 98.7218 186.041 96.4615 188.465 93.7864C183.335 90.0892 176.931 88.9951 170.786 88.3699C157.55 87.1015 144.369 85.1237 131.103 84.1558C125.884 84.24 120.676 83.6629 115.457 83.9154C109.828 84.1077 104.188 84.1077 98.559 84.246C94.8127 85.0035 90.9701 84.5165 87.2178 85.2439ZM63.2245 89.6444C61.3122 91.3938 60.2238 93.8344 58.492 95.7521C57.3134 97.3692 55.7559 99.0224 55.8822 101.163C56.0806 100.994 56.4715 100.658 56.6699 100.489C60.2479 95.6139 65.0586 91.8266 69.3882 87.6786C67.2775 88.0393 65.0345 88.4301 63.2245 89.6444ZM54.7216 98.2109C55.798 97.6157 56.4053 96.5276 57.1209 95.5838C58.1552 94.0869 59.6946 92.9507 60.3621 91.2074C57.5719 92.572 55.2207 95.0548 54.7216 98.2109ZM55.335 106.765C55.6537 114.051 55.9844 121.343 55.9183 128.641C55.8762 137.454 56.1408 146.285 55.3951 155.074C55.2027 168.312 55.2628 181.555 55.365 194.793C55.8461 201.117 56.0686 207.471 55.7499 213.807C55.1004 217.841 55.5695 221.953 54.8118 225.975C54.6555 231.607 54.5893 237.246 54.6975 242.885C55.0042 249.846 57.3134 257.205 62.984 261.665C70.657 267.791 80.8016 269.089 90.2125 270.46C93.4356 270.46 96.5926 271.314 99.8218 271.127C104.248 270.995 108.631 271.831 113.051 271.729C117.862 271.68 122.673 271.717 127.453 272.264C136.485 272.378 145.523 272.36 154.555 272.33C157.556 272.45 160.479 271.632 163.479 271.632C170.773 270.484 178.392 269.288 184.718 265.218C188.537 261.695 192.584 257.734 193.558 252.401C194.003 246.498 192.921 240.655 192.343 234.794C185.163 244.989 178.946 256.177 169.318 264.364C169.042 264.443 168.476 264.605 168.2 264.683C170.425 261.262 173.353 258.371 175.819 255.125C181.886 247.809 186.949 239.735 192.373 231.95C192.53 227.778 192.367 223.6 192.434 219.428C192.398 217.817 192.596 216.164 192.097 214.607C182.818 227.76 172.962 240.486 163.04 253.159C161.399 255.064 160.082 257.289 158.019 258.792C159.192 256.008 161.242 253.712 162.872 251.193C171.862 238.972 181.586 227.297 190.335 214.895C191.249 213.537 192.65 212.22 192.422 210.429C192.265 205.722 192.259 201.009 192.121 196.302C189.15 200.347 186.156 204.381 183.468 208.625C179.535 214.456 175.097 219.927 171.068 225.698C167.935 229.846 165.343 234.385 162.006 238.376C161.784 238.491 161.333 238.719 161.104 238.833C166.239 227.357 175.187 218.25 182.157 207.922C184.171 205.114 185.693 201.952 188.056 199.403C189.517 197.732 190.774 195.893 192.013 194.059C192.187 189.995 191.959 185.908 191.838 181.838C184.622 190.867 178.519 200.726 171.459 209.876C169.841 211.733 168.603 214.03 166.39 215.274C168.615 210.97 171.585 207.092 174.339 203.119C178.567 197.498 182.518 191.679 186.817 186.118C188.507 183.791 190.545 181.669 191.826 179.072C191.862 172.652 191.886 166.226 191.748 159.805C185.5 167.356 180.605 175.892 174.772 183.749C173.389 185.252 174.135 187.452 173.726 189.286C172.433 194.811 168.741 199.319 165.193 203.588C162.397 206.834 158.795 209.731 154.447 210.393C151.116 210.387 147.778 208.144 146.75 204.934C145.427 201.441 147.147 197.678 149.252 194.877C151.188 191.835 154.694 189.857 155.746 186.262C156.269 183.948 154.519 182.144 153.1 180.581C149.438 177.431 145.421 174.167 143.834 169.418C143.401 166.869 143.749 163.791 145.992 162.15C147.454 160.755 149.6 161.05 151.441 161.164C157.478 163.424 162.084 168.101 166.979 172.105C169.89 175.129 172.487 178.591 173.714 182.673C178.88 175.441 183.768 167.999 189.319 161.044C190.124 160.028 191.171 159.186 191.76 158.008C192.187 152.333 191.117 146.7 191.201 141.031C186.631 148.786 181.086 155.898 175.921 163.256C173.81 165.889 171.874 168.979 168.801 170.548C169.144 169.574 169.619 168.648 170.226 167.813C174.123 162.312 178.435 157.124 182.397 151.672C185.5 147.512 188.862 143.478 191.183 138.807C191.279 134.761 191.243 130.703 191.171 126.658C184.033 137.052 177.472 147.854 169.914 157.954C169.637 158.086 169.09 158.344 168.813 158.471C169.583 156.409 170.864 154.599 172.006 152.73C177.851 143.634 184.003 134.731 190.251 125.9C190.69 125.251 191.243 124.62 191.315 123.802C192.319 118.392 191.441 112.855 192.199 107.421C187.599 110.847 181.832 111.665 176.318 112.488C173.365 116.708 169.625 120.285 166.612 124.463C165.776 125.563 164.88 126.838 163.419 127.096C164.405 123.231 167.689 120.742 170.076 117.772C171.537 116.011 173.437 114.622 174.652 112.663C169.974 113.023 165.331 113.793 160.623 113.667C154.02 114.532 147.351 114.123 140.713 114.22C134.2 114.141 127.676 114.382 121.175 114.075C117.718 113.498 114.212 113.733 110.736 113.486C105.547 112.633 100.273 113.342 95.0652 112.693C90.8439 112.2 86.5924 112.536 82.365 112.374C79.7552 112.278 77.1755 111.731 74.5597 111.815C67.9149 111.382 61.1559 110.18 55.335 106.765ZM197.443 125.666C197.353 126.766 197.304 127.872 197.304 128.978C198.291 128.425 198.964 127.493 199.758 126.712C198.988 126.351 198.218 125.996 197.443 125.666ZM201.081 127.493C199.403 129.243 196.89 131.317 197.461 133.992C200.089 132.363 202.121 129.994 204.617 128.185C203.45 127.944 202.296 127.247 201.081 127.493ZM203.456 130.631C201.303 132.675 199.084 134.695 197.353 137.124C197.527 137.719 197.701 138.32 197.876 138.921C200.912 136.114 204.526 134.022 207.449 131.088C207.978 130.673 208.405 129.946 209.163 129.94C209.578 131.341 208.128 132.375 207.317 133.312C204.178 136.03 200.552 138.224 197.93 141.506C197.792 142.432 197.834 143.37 197.828 144.308C199.92 142.384 201.977 140.412 204.226 138.663C206.072 137.202 207.503 134.905 209.999 134.521C208.399 136.787 206.246 138.572 204.292 140.52C202.542 142.33 199.896 143.442 199.217 146.087C200.209 145.997 201.406 146.43 202.199 145.606C204.37 143.953 206.962 142.859 208.838 140.833C210.456 139.486 211.989 137.557 214.268 137.532C211.027 139.57 209.139 143.201 205.633 144.861C204.809 145.293 204.172 145.985 203.522 146.634C204.893 147.175 206.33 147.554 207.756 147.951C209.139 146.363 210.937 145.245 212.626 144.019C213.919 143.087 215.152 141.993 216.716 141.53C214.984 144.548 211.52 145.889 209.451 148.642C210.564 149.345 211.724 149.97 212.897 150.572C213.907 149.489 215.026 148.528 216.21 147.65C217.353 146.838 218.195 145.516 219.662 145.281C219.151 148.053 215.97 148.87 214.461 150.956C214.593 152.243 216.277 152.664 217.118 153.499C219.379 151.9 221.304 149.868 223.727 148.504C223.679 148.882 223.589 149.64 223.547 150.018C221.695 151.329 220.083 152.928 218.538 154.575C219.283 155.357 220.023 156.144 220.763 156.938C223.036 155.182 225.309 153.433 227.251 151.299C227.365 151.545 227.6 152.038 227.72 152.285C226.325 154.689 223.865 156.361 221.719 158.092C222.422 158.94 223.108 159.799 223.775 160.677C226.072 159.276 228.279 157.689 230.023 155.621C230.282 155.976 230.546 156.337 230.811 156.703C229.067 158.633 227.053 160.262 225.026 161.885C224.737 163.058 226 164.17 226.301 165.336C227.443 163.166 229.62 161.939 231.496 160.491C232.284 159.895 233.102 159.33 234.076 159.096C234.004 159.391 233.854 159.98 233.775 160.274C231.701 162.492 229.235 164.362 226.836 166.208C227.371 167.452 227.834 168.726 228.357 169.989C229.933 168.763 231.52 167.53 232.843 166.021C234.04 164.753 235.153 163.214 236.902 162.703C235.177 166.244 232.513 169.526 229.115 171.57C229.115 171.991 229.109 172.838 229.109 173.259C231.514 172.093 233.421 170.085 235.934 169.141C234.804 171.804 232.08 173.001 229.903 174.624C229.825 175.057 229.674 175.922 229.602 176.355C232.236 175.556 234.19 172.568 237.161 173.139C234.942 174.87 232.495 176.289 230.312 178.068C230.312 178.952 230.324 179.842 230.348 180.726C233.192 180.239 234.708 177.143 237.516 176.584C236.079 179.199 233.403 180.677 231.13 182.457C230.637 183.743 231.003 185.192 230.937 186.545C233.066 185.733 235.159 184.663 236.421 182.685C237.185 183.894 236.121 185.108 235.261 185.914C233.95 186.942 232.447 187.699 230.925 188.366C230.781 189.376 230.643 190.38 230.546 191.402C231.797 190.645 233.006 189.803 234.299 189.1C235.219 188.643 236.259 187.789 237.227 188.673C234.954 190.152 232.555 191.444 230.426 193.133C229.993 193.897 229.795 194.769 229.578 195.616C231.911 194.438 233.775 192.376 236.409 191.787C236.355 192.051 236.241 192.574 236.187 192.839C233.625 194.648 231.075 196.5 228.73 198.598C225.224 207.465 217.563 214.084 208.994 217.907C205.176 219.494 202.44 222.698 199.157 225.085C199.066 225.536 198.88 226.437 198.784 226.894C201.484 224.544 204.569 222.728 207.473 220.66C208.682 219.837 209.884 218.953 211.298 218.514C210.961 219.151 210.528 219.717 209.999 220.209C206.409 223.269 202.175 225.572 198.988 229.095C198.916 230.014 198.904 230.94 198.952 231.866C201.219 230.399 203.24 228.602 205.398 226.991C206.751 226.011 207.744 224.49 209.427 224.021C209.223 225.806 207.515 226.792 206.33 227.946C203.727 229.768 201.712 232.293 199.042 234.036C199.042 235.124 199.048 236.206 199.078 237.3C201.899 235.172 204.875 233.218 207.377 230.712C207.75 229.972 209.043 231.169 208.261 231.547C205.471 234.896 200.949 236.513 198.814 240.438C200.696 240.048 202.68 240.012 204.496 239.332C205.819 238.467 206.727 237.096 208.044 236.212C209.818 235.016 211.658 233.91 213.354 232.599C213.516 232.888 213.853 233.465 214.016 233.754C212.206 235.395 209.812 236.345 208.297 238.304C220.973 235.112 232.555 226.984 239.206 215.641C244.022 207.741 246.319 198.556 247.143 189.412C247.035 184.369 247.552 179.271 246.638 174.287C245.496 164.176 242.236 154.04 235.832 146.003C233.872 143.742 231.725 141.65 229.536 139.618C222.813 134.106 214.503 131.016 206.24 128.665C205.128 128.978 204.334 129.928 203.456 130.631ZM197.864 148.954C197.792 153.211 197.9 157.467 198.086 161.723C198.507 177.942 198.429 194.173 198.435 210.399C198.471 212.22 198.237 214.102 198.844 215.863C207.04 213.05 215.212 208.86 220.402 201.67C223.565 197.035 225.122 191.348 224.912 185.757C225.104 178.976 223.39 172.213 220.522 166.093C216.072 157.353 207.287 151.245 197.864 148.954ZM149.246 165.228C149.173 166.334 149.143 167.44 149.173 168.552C150.346 168.197 151.152 167.236 151.922 166.334C151.795 165.077 150.118 165.498 149.246 165.228ZM151.699 171.546C153.1 170.614 154.321 169.448 155.5 168.258C154.784 167.626 154.08 166.977 153.305 166.418C151.813 167.59 149.919 169.772 151.699 171.546ZM156.468 169.039C155.301 170.157 154.231 171.366 153.172 172.586C153.647 173.229 154.135 173.872 154.628 174.516C155.902 173.265 157.177 172.015 158.416 170.722C157.749 170.217 157.334 169.141 156.468 169.039ZM156.263 175.447C156.558 176.379 157.52 176.896 158.139 177.612C159.402 176.409 160.629 175.165 161.862 173.926C161.014 173.187 160.184 172.43 159.342 171.684C158.224 172.838 156.798 173.866 156.263 175.447ZM159.228 178.591C159.27 179.433 159.986 180.004 160.418 180.671C161.784 179.361 163.275 178.195 164.85 177.149C164.183 176.355 163.515 175.562 162.86 174.768C161.621 176.012 160.286 177.185 159.228 178.591ZM161.128 182.391C161.958 184.561 161.561 186.803 161.074 188.997C163.636 186.809 165.933 184.314 167.947 181.615C167.208 180.401 166.444 179.205 165.53 178.123C164.051 179.529 162.643 181.014 161.128 182.391ZM159.811 192.827C157.959 194.991 155.187 196.205 153.629 198.64C152.619 200.239 151.477 202.301 152.775 204.08C155.926 199.59 160.382 196.283 163.948 192.16C165.067 190.488 166.522 189.112 167.935 187.699C169.258 186.521 168.681 184.579 168.296 183.112C165.662 186.515 162.962 189.875 159.811 192.827ZM162.806 195.809C160.912 197.732 159.017 199.65 157.081 201.532C156.137 202.511 154.814 203.173 154.285 204.495C157.785 202.674 160.821 199.975 163.197 196.825C164.79 194.811 166.648 192.785 167.34 190.266C165.512 191.841 164.496 194.101 162.806 195.809ZM198.688 221.67C198.766 222.332 198.856 222.999 198.964 223.66C200.353 222.716 201.899 221.911 202.909 220.528C201.484 220.835 200.089 221.261 198.688 221.67Z" fill="white"/>
<path d="M82.5815 90.3538C82.9904 90.498 83.3211 90.7505 83.5677 91.1112C79.8093 94.8564 76.045 98.5956 72.3047 102.359C71.3365 103.357 70.1459 104.084 68.9432 104.769C69.2679 102.058 71.8477 100.585 73.5915 98.782C76.8929 96.3112 79.5387 93.1131 82.5815 90.3538Z" fill="white"/>
<path d="M177.106 95.3373C178.242 94.2072 178.94 92.3496 180.762 92.2534C180.557 94.4597 178.675 95.7762 177.274 97.261C175.416 99.2449 173.022 100.603 171.182 102.611C169.523 104.084 168.248 106.387 165.806 106.561C166.197 104.391 168.326 103.255 169.697 101.728C171.91 99.299 174.808 97.6638 177.106 95.3373Z" fill="white"/>
<path d="M169.823 94.5318C170.118 94.4536 170.707 94.2973 170.996 94.2252C170.858 94.64 170.581 95.4756 170.443 95.8904C168.128 98.3732 165.494 100.537 163.112 102.954C161.741 104.421 159.871 105.365 158.741 107.06C158.23 107.018 157.207 106.946 156.696 106.91C157.857 105.046 159.925 104.006 161.399 102.401C164.465 100.056 166.973 97.1047 169.823 94.5318Z" fill="white"/>
<path d="M186.799 113.997C187.894 112.578 188.573 110.781 190.131 109.783C186.637 116.54 181.357 122.155 177.208 128.497C173.624 133.841 170.695 139.961 165.217 143.682C165.626 141.572 167.117 139.943 168.332 138.248C171.423 134.437 174.021 130.271 176.841 126.261C179.878 121.945 183.678 118.241 186.799 113.997Z" fill="white"/>
<path d="M138.56 140.292C140.761 139.883 143.322 140.911 144.471 142.895C145.962 145.035 145.818 147.812 145.577 150.295C145.361 153.427 144.206 156.391 143.076 159.288C140.19 166.045 138.163 173.121 135.493 179.968C133.118 186.364 130.382 192.628 128.235 199.115C126.335 204.736 125.108 210.657 122.053 215.809C120.147 219.482 116.599 222.476 112.432 223.053C108.649 222.993 106.13 219.254 105.998 215.737C105.919 210.218 108.204 205.018 110.574 200.143C114.302 192.244 116.461 183.749 119.798 175.694C120.802 172.911 122.101 170.235 122.949 167.398C124.392 163.845 126.311 160.473 127.345 156.769C128.235 152.513 129.245 148.065 132.035 144.608C133.605 142.462 135.926 140.809 138.56 140.292ZM135.12 148.708C137.099 147.59 139.113 146.46 140.833 144.957C138.277 144.163 135.174 145.877 135.12 148.708ZM134.838 151.028C133.382 152.225 133.166 154.203 132.769 155.922C135.03 154.708 137.309 153.493 139.39 151.984C141.206 150.722 140.689 148.317 140.833 146.43C138.632 147.674 136.684 149.321 134.838 151.028ZM131.157 160.196C133.665 159.18 135.619 157.25 137.965 155.946C139.125 155.513 139.39 154.203 139.684 153.145C136.726 155.273 132.697 156.667 131.157 160.196ZM130.917 162.739C129.853 163.514 129.51 164.825 129.095 166.003C131.434 164.639 133.978 163.587 136.167 161.976C137.243 160.635 137.586 158.898 138.097 157.292C135.619 158.988 133.232 160.827 130.917 162.739ZM128.253 168.558C127.399 169.785 126.96 171.233 126.702 172.694C129.161 171.311 131.368 169.538 133.587 167.813C134.862 166.857 135.036 165.114 135.541 163.719C132.877 164.945 130.574 166.797 128.253 168.558ZM125.781 175.646C124.519 177.209 124.158 179.313 123.442 181.158C126.016 179.301 128.722 177.612 131.236 175.67C132.198 174.161 132.456 172.255 133.034 170.56C130.538 172.135 128.151 173.89 125.781 175.646ZM123.418 183.479C121.572 184.976 121.392 187.537 120.73 189.665C122.709 188.553 124.32 186.929 126.196 185.673C128.945 184.242 129.251 180.834 130.255 178.219C127.916 179.89 125.583 181.591 123.418 183.479ZM120.857 191.763C119.047 192.508 118.764 194.63 118.259 196.277C120.472 194.955 122.781 193.711 124.723 191.997C125.8 190.657 126.208 188.931 126.702 187.314C124.669 188.703 123.1 190.681 120.857 191.763ZM117.886 198.424C116.178 199.217 116.16 201.393 115.39 202.89C117.982 201.453 120.093 199.331 122.42 197.534C123.484 196.837 123.599 195.448 123.99 194.354C121.867 195.574 120.051 197.263 117.886 198.424ZM113.869 206.449C112.841 208.487 111.981 210.669 111.74 212.96C114.356 211.354 116.503 209.148 118.878 207.237C121.133 205.529 121.139 202.415 122.059 199.957C119.125 201.832 116.779 204.501 113.869 206.449ZM111.313 214.955C111.668 215.905 112.047 216.843 112.474 217.769C116.052 215.971 118.349 212.262 119.191 208.451C116.593 210.651 114.242 213.158 111.313 214.955Z" fill="white"/>
<path d="M101.235 158.332C103.845 157.431 107.056 158.573 108.168 161.176C109.804 164.651 108.571 168.859 106.04 171.564C103.249 174.564 99.8098 177.022 97.4826 180.425C95.9252 182.505 97.2722 185.108 98.7695 186.785C102.245 190.332 105.889 194.408 106.352 199.584C106.16 202.554 104.59 205.728 101.656 206.81C97.9998 208.541 93.8926 206.557 91.0423 204.171C85.5461 199.422 80.6873 193.41 78.8953 186.244C78.6367 184.296 78.7209 182.319 78.8292 180.365C79.9657 174.942 83.9766 170.855 87.9454 167.266C92.0766 163.905 96.0875 160.094 101.235 158.332ZM92.8223 169.105C89.2203 172.514 85.0831 176.073 84.0367 181.164C89.1782 176.926 94.0971 172.375 99.8399 168.943C101.836 167.783 103.532 165.769 103.538 163.364C100.934 164.759 99.1483 167.175 96.7189 168.805C93.4176 171.233 90.5071 174.203 86.9833 176.313C91.2528 170.65 97.7532 167.41 102.931 162.709C98.541 162.847 96.0093 166.713 92.8223 169.105ZM83.9706 183.389C84.0007 183.882 84.0668 184.861 84.1029 185.354C86.4842 183.521 88.5949 181.345 90.9581 179.517C89.8456 182.625 86.6405 184.326 84.6441 186.845C84.9688 187.489 85.2875 188.144 85.6002 188.799C87.0073 186.821 89.1421 185.565 90.6875 183.719C91.1205 181.856 91.2528 179.86 92.3051 178.207C93.8385 175.273 96.5806 173.307 98.6673 170.806C92.9906 174.017 88.9978 179.349 83.9706 183.389ZM86.3759 189.881C86.9051 190.669 87.4283 191.456 87.9575 192.256C89.3586 190.669 90.7597 189.088 92.269 187.603C91.9142 186.743 91.5474 185.889 91.2107 185.024C89.5931 186.641 88.0416 188.318 86.3759 189.881ZM89.2323 193.506C89.6292 194.149 90.0321 194.793 90.435 195.442C91.9443 194.041 93.3755 192.544 94.8367 191.089C94.2895 190.398 93.7483 189.701 93.1951 189.015C91.7639 190.416 90.3327 191.829 89.2323 193.506ZM91.7158 196.656C92.2029 197.101 92.702 197.528 93.2191 197.943C94.488 197.041 95.3358 195.616 96.6828 194.841C96.9294 194.961 97.4345 195.201 97.6811 195.322C96.5145 196.602 95.2697 197.798 94.0911 199.067C95.8169 200.215 97.5428 201.664 99.7497 201.495C100.297 200.449 100.802 199.163 100.141 198.045C99.01 195.911 97.7171 193.602 95.6125 192.328C94.1151 193.578 92.9906 195.189 91.7158 196.656Z" fill="white"/>
<path d="M191.52 245.554C191.766 245.428 192.265 245.169 192.512 245.043C192.56 247.219 191.069 248.915 189.992 250.658C187.599 254.115 184.773 257.373 181.429 259.916C181.79 259.008 182.313 258.179 182.951 257.445C186.023 253.64 189.006 249.75 191.52 245.554Z" fill="white"/>
</svg>
